<?xml version="1.0" standalone="no"?>
<!DOCTYPE svg PUBLIC "-//W3C//DTD SVG 20010904//EN"
 "http://www.w3.org/TR/2001/REC-SVG-20010904/DTD/svg10.dtd">
<svg version="1.0" xmlns="http://www.w3.org/2000/svg"
 width="708.000000pt" height="708.000000pt" viewBox="0 0 708.000000 708.000000"
 preserveAspectRatio="xMidYMid meet">
<metadata>
Created by potrace 1.11, written by Peter Selinger 2001-2013
</metadata>
<g transform="translate(0.000000,708.000000) scale(0.100000,-0.100000)"
fill="#000000" stroke="none">
<path d="M0 3540 l0 -3540 3540 0 3540 0 0 3540 0 3540 -3540 0 -3540 0 0
-3540z m5407 1425 c8 -23 -15 -527 -32 -688 -94 -890 -386 -1414 -936 -1682
l-92 -45 914 -2 914 -3 -80 -41 c-622 -320 -2075 -472 -3370 -353 -683 62
-1242 191 -1565 359 l-75 39 919 1 919 0 -102 50 c-220 108 -398 258 -528 445
-26 37 -43 52 -53 48 -82 -32 -91 -33 -239 -23 -329 22 -563 99 -750 248 -146
117 -263 303 -318 507 -24 91 -27 117 -27 280 -1 204 9 259 71 385 71 146 214
255 385 295 81 19 267 35 407 35 l103 0 -7 75 -7 75 249 3 c136 1 933 3 1771
5 1362 2 1523 0 1529 -13z"/>
<path d="M1510 4423 c-171 -29 -225 -104 -225 -313 1 -311 153 -521 440 -610
112 -34 345 -64 345 -44 0 4 -18 63 -40 133 -53 162 -104 416 -125 617 -9 88
-19 174 -21 192 l-5 32 -172 -1 c-95 -1 -183 -4 -197 -6z"/>
</g>
</svg>
